<svg width="559" height="320" viewBox="0 0 559 320" fill="none" xmlns="http://www.w3.org/2000/svg">
<path d="M166.356 59.1949L60.3555 165.195L166.356 271.195L131 306.55L7.32233 182.873C-2.44078 173.11 -2.44078 157.28 7.32233 147.517L131 23.8395L166.356 59.1949Z" fill="#FD2054"/>
<path d="M551.678 147.517C561.408 157.248 561.445 173.012 551.761 182.789L429.162 306.549L393.641 271.362L498.728 165.278L392.645 59.1949L428 23.8395L551.678 147.517Z" fill="#FD2054"/>
<path d="M304.967 211.066L369.194 210.213C367.63 232.262 361.726 251.608 351.484 268.252C341.384 284.753 327.799 297.556 310.729 306.66C293.658 315.764 274.027 320.032 251.836 319.463C232.774 319.036 217.055 314.91 204.679 307.087C192.303 299.12 182.772 288.665 176.087 275.72C169.543 262.633 165.346 248.194 163.497 232.404C161.79 216.472 162.003 200.326 164.137 183.967L171.606 135.743C174.166 118.531 178.505 101.745 184.622 85.3859C190.739 69.0268 198.918 54.3748 209.16 41.4298C219.545 28.3426 232.134 18.1004 246.928 10.7032C261.723 3.16385 278.793 -0.392465 298.139 0.034293C320.615 0.461051 338.61 5.65327 352.124 15.611C365.638 25.5686 375.454 38.8693 381.57 55.5128C387.687 72.0141 390.746 90.5781 390.746 111.205L324.598 110.778C325.452 101.389 325.523 92.5696 324.812 84.319C324.243 75.9261 321.682 69.0979 317.13 63.8346C312.578 58.429 304.612 55.5128 293.232 55.0861C282.42 54.6593 273.601 56.9353 266.773 61.9142C260.087 66.893 254.823 73.5789 250.983 81.9718C247.142 90.2224 244.297 99.1132 242.447 108.644C240.598 118.033 239.104 126.924 237.966 135.317L231.138 184.18C230.143 190.866 229.076 198.761 227.938 207.865C226.8 216.827 226.515 225.576 227.084 234.111C227.795 242.504 230.285 249.616 234.552 255.449C238.962 261.139 246.217 264.269 256.317 264.838C267.839 265.264 276.944 263.13 283.629 258.436C290.458 253.6 295.436 247.056 298.566 238.805C301.696 230.412 303.829 221.166 304.967 211.066Z" fill="#FD2054"/>
</svg>
